<mxfile host="app.diagrams.net" modified="2022-02-24T19:31:00.809Z" agent="5.0 (Windows NT 10.0; WOW64) AppleWebKit/537.36 (KHTML, like Gecko) Chrome/98.0.4758.102 Safari/537.36" etag="oLei6PpIFSnBXkf2L3tl" version="16.6.2" type="github">
  <diagram id="kgpKYQtTHZ0yAKxKKP6v" name="Page-1">
    <mxGraphModel dx="1718" dy="482" grid="1" gridSize="10" guides="1" tooltips="1" connect="1" arrows="1" fold="1" page="1" pageScale="1" pageWidth="850" pageHeight="1100" math="0" shadow="0">
      <root>
        <mxCell id="0" />
        <mxCell id="1" parent="0" />
        <mxCell id="ByjbVsPNWMyPK0oeUUoG-3" value="" style="edgeStyle=orthogonalEdgeStyle;rounded=0;orthogonalLoop=1;jettySize=auto;html=1;" parent="1" source="ByjbVsPNWMyPK0oeUUoG-1" target="ByjbVsPNWMyPK0oeUUoG-2" edge="1">
          <mxGeometry relative="1" as="geometry" />
        </mxCell>
        <mxCell id="ByjbVsPNWMyPK0oeUUoG-1" value="Inicio" style="ellipse;whiteSpace=wrap;html=1;" parent="1" vertex="1">
          <mxGeometry x="350" y="10" width="70" height="30" as="geometry" />
        </mxCell>
        <mxCell id="ByjbVsPNWMyPK0oeUUoG-5" value="" style="edgeStyle=orthogonalEdgeStyle;rounded=0;orthogonalLoop=1;jettySize=auto;html=1;" parent="1" source="ByjbVsPNWMyPK0oeUUoG-2" target="ByjbVsPNWMyPK0oeUUoG-4" edge="1">
          <mxGeometry relative="1" as="geometry" />
        </mxCell>
        <mxCell id="ByjbVsPNWMyPK0oeUUoG-2" value="Leer (A)" style="shape=manualInput;whiteSpace=wrap;html=1;" parent="1" vertex="1">
          <mxGeometry x="330" y="60" width="110" height="60" as="geometry" />
        </mxCell>
        <mxCell id="ByjbVsPNWMyPK0oeUUoG-7" value="" style="edgeStyle=orthogonalEdgeStyle;rounded=0;orthogonalLoop=1;jettySize=auto;html=1;" parent="1" source="ByjbVsPNWMyPK0oeUUoG-4" target="ByjbVsPNWMyPK0oeUUoG-6" edge="1">
          <mxGeometry relative="1" as="geometry" />
        </mxCell>
        <mxCell id="ByjbVsPNWMyPK0oeUUoG-9" value="" style="edgeStyle=orthogonalEdgeStyle;rounded=0;orthogonalLoop=1;jettySize=auto;html=1;" parent="1" source="ByjbVsPNWMyPK0oeUUoG-4" edge="1">
          <mxGeometry relative="1" as="geometry">
            <mxPoint x="290" y="185" as="targetPoint" />
          </mxGeometry>
        </mxCell>
        <mxCell id="ByjbVsPNWMyPK0oeUUoG-4" value="Si A&amp;lt;500" style="rhombus;whiteSpace=wrap;html=1;" parent="1" vertex="1">
          <mxGeometry x="343" y="150" width="82.5" height="70" as="geometry" />
        </mxCell>
        <mxCell id="ByjbVsPNWMyPK0oeUUoG-26" style="edgeStyle=orthogonalEdgeStyle;rounded=0;orthogonalLoop=1;jettySize=auto;html=1;entryX=1;entryY=0.5;entryDx=0;entryDy=0;entryPerimeter=0;" parent="1" source="ByjbVsPNWMyPK0oeUUoG-6" target="ByjbVsPNWMyPK0oeUUoG-22" edge="1">
          <mxGeometry relative="1" as="geometry">
            <Array as="points">
              <mxPoint x="570" y="360" />
            </Array>
          </mxGeometry>
        </mxCell>
        <mxCell id="ByjbVsPNWMyPK0oeUUoG-6" value="B1=A+Z1" style="rounded=1;whiteSpace=wrap;html=1;" parent="1" vertex="1">
          <mxGeometry x="470" y="155" width="120" height="60" as="geometry" />
        </mxCell>
        <mxCell id="ByjbVsPNWMyPK0oeUUoG-10" value="No" style="text;html=1;strokeColor=none;fillColor=none;align=center;verticalAlign=middle;whiteSpace=wrap;rounded=0;" parent="1" vertex="1">
          <mxGeometry x="290" y="155" width="60" height="30" as="geometry" />
        </mxCell>
        <mxCell id="ByjbVsPNWMyPK0oeUUoG-12" value="Si" style="text;html=1;strokeColor=none;fillColor=none;align=center;verticalAlign=middle;whiteSpace=wrap;rounded=0;" parent="1" vertex="1">
          <mxGeometry x="425" y="155" width="60" height="30" as="geometry" />
        </mxCell>
        <mxCell id="ByjbVsPNWMyPK0oeUUoG-16" value="" style="edgeStyle=orthogonalEdgeStyle;rounded=0;orthogonalLoop=1;jettySize=auto;html=1;" parent="1" source="ByjbVsPNWMyPK0oeUUoG-14" target="ByjbVsPNWMyPK0oeUUoG-15" edge="1">
          <mxGeometry relative="1" as="geometry" />
        </mxCell>
        <mxCell id="ByjbVsPNWMyPK0oeUUoG-18" value="" style="edgeStyle=orthogonalEdgeStyle;rounded=0;orthogonalLoop=1;jettySize=auto;html=1;" parent="1" source="ByjbVsPNWMyPK0oeUUoG-14" target="ByjbVsPNWMyPK0oeUUoG-17" edge="1">
          <mxGeometry relative="1" as="geometry" />
        </mxCell>
        <mxCell id="ByjbVsPNWMyPK0oeUUoG-14" value="&lt;span&gt;&amp;nbsp;Si (A &amp;gt;= 500)&amp;lt;1000&lt;/span&gt;" style="rhombus;whiteSpace=wrap;html=1;" parent="1" vertex="1">
          <mxGeometry x="180" y="140" width="120" height="90" as="geometry" />
        </mxCell>
        <mxCell id="ByjbVsPNWMyPK0oeUUoG-25" style="edgeStyle=orthogonalEdgeStyle;rounded=0;orthogonalLoop=1;jettySize=auto;html=1;entryX=0.171;entryY=0.153;entryDx=0;entryDy=0;entryPerimeter=0;" parent="1" source="ByjbVsPNWMyPK0oeUUoG-15" target="ByjbVsPNWMyPK0oeUUoG-22" edge="1">
          <mxGeometry relative="1" as="geometry">
            <Array as="points">
              <mxPoint x="235" y="330" />
              <mxPoint x="306" y="330" />
            </Array>
          </mxGeometry>
        </mxCell>
        <mxCell id="ByjbVsPNWMyPK0oeUUoG-15" value="B2= A + Z2" style="rounded=1;whiteSpace=wrap;html=1;" parent="1" vertex="1">
          <mxGeometry x="175" y="250" width="120" height="60" as="geometry" />
        </mxCell>
        <mxCell id="ByjbVsPNWMyPK0oeUUoG-24" style="edgeStyle=orthogonalEdgeStyle;rounded=0;orthogonalLoop=1;jettySize=auto;html=1;entryX=0;entryY=0.5;entryDx=0;entryDy=0;entryPerimeter=0;" parent="1" source="ByjbVsPNWMyPK0oeUUoG-17" target="ByjbVsPNWMyPK0oeUUoG-22" edge="1">
          <mxGeometry relative="1" as="geometry">
            <Array as="points">
              <mxPoint x="90" y="360" />
            </Array>
          </mxGeometry>
        </mxCell>
        <mxCell id="ByjbVsPNWMyPK0oeUUoG-17" value="B3= A + Z3" style="rounded=1;whiteSpace=wrap;html=1;" parent="1" vertex="1">
          <mxGeometry x="20" y="185" width="120" height="60" as="geometry" />
        </mxCell>
        <mxCell id="ByjbVsPNWMyPK0oeUUoG-20" value="Si" style="text;html=1;strokeColor=none;fillColor=none;align=center;verticalAlign=middle;whiteSpace=wrap;rounded=0;" parent="1" vertex="1">
          <mxGeometry x="220" y="220" width="60" height="30" as="geometry" />
        </mxCell>
        <mxCell id="ByjbVsPNWMyPK0oeUUoG-21" value="No" style="text;html=1;strokeColor=none;fillColor=none;align=center;verticalAlign=middle;whiteSpace=wrap;rounded=0;" parent="1" vertex="1">
          <mxGeometry x="130" y="160" width="60" height="30" as="geometry" />
        </mxCell>
        <mxCell id="ByjbVsPNWMyPK0oeUUoG-28" value="" style="edgeStyle=orthogonalEdgeStyle;rounded=0;orthogonalLoop=1;jettySize=auto;html=1;" parent="1" source="ByjbVsPNWMyPK0oeUUoG-22" target="ByjbVsPNWMyPK0oeUUoG-27" edge="1">
          <mxGeometry relative="1" as="geometry" />
        </mxCell>
        <mxCell id="ByjbVsPNWMyPK0oeUUoG-22" value="Imprimir (B1;B2;B3)" style="shape=display;whiteSpace=wrap;html=1;" parent="1" vertex="1">
          <mxGeometry x="280" y="320" width="150" height="80" as="geometry" />
        </mxCell>
        <mxCell id="ByjbVsPNWMyPK0oeUUoG-27" value="Fin" style="ellipse;whiteSpace=wrap;html=1;" parent="1" vertex="1">
          <mxGeometry x="325" y="420" width="60" height="30" as="geometry" />
        </mxCell>
        <mxCell id="4bbGpndZAnQvG1SRmh3T-4" value="" style="edgeStyle=orthogonalEdgeStyle;rounded=0;orthogonalLoop=1;jettySize=auto;html=1;" parent="1" source="4bbGpndZAnQvG1SRmh3T-1" target="4bbGpndZAnQvG1SRmh3T-2" edge="1">
          <mxGeometry relative="1" as="geometry" />
        </mxCell>
        <mxCell id="4bbGpndZAnQvG1SRmh3T-1" value="Inicio" style="ellipse;whiteSpace=wrap;html=1;" parent="1" vertex="1">
          <mxGeometry x="320" y="590" width="50" height="30" as="geometry" />
        </mxCell>
        <mxCell id="4bbGpndZAnQvG1SRmh3T-7" value="" style="edgeStyle=orthogonalEdgeStyle;rounded=0;orthogonalLoop=1;jettySize=auto;html=1;" parent="1" source="4bbGpndZAnQvG1SRmh3T-2" target="4bbGpndZAnQvG1SRmh3T-6" edge="1">
          <mxGeometry relative="1" as="geometry" />
        </mxCell>
        <mxCell id="4bbGpndZAnQvG1SRmh3T-2" value="Leer (X)" style="shape=manualInput;whiteSpace=wrap;html=1;" parent="1" vertex="1">
          <mxGeometry x="282.5" y="630" width="125" height="40" as="geometry" />
        </mxCell>
        <mxCell id="4bbGpndZAnQvG1SRmh3T-5" value="Variable de entrada:X&lt;br&gt;Variable de salida: X determinada&lt;br&gt;X= Numero&lt;br&gt;Condiciones: X&amp;lt;0 y x mod 2 = Negativo par&lt;br&gt;X&amp;lt;0 y No x mod 2= Negativo impar&lt;br&gt;X&amp;gt; 0 y X mod 2 = positivo par&lt;br&gt;X&amp;gt;0 y No Xmod2 = Positivo Impar" style="text;html=1;strokeColor=none;fillColor=none;align=center;verticalAlign=middle;whiteSpace=wrap;rounded=0;" parent="1" vertex="1">
          <mxGeometry x="-50" y="570" width="280" height="100" as="geometry" />
        </mxCell>
        <mxCell id="4bbGpndZAnQvG1SRmh3T-9" value="" style="edgeStyle=orthogonalEdgeStyle;rounded=0;orthogonalLoop=1;jettySize=auto;html=1;" parent="1" source="4bbGpndZAnQvG1SRmh3T-6" target="4bbGpndZAnQvG1SRmh3T-11" edge="1">
          <mxGeometry relative="1" as="geometry">
            <mxPoint x="426" y="740" as="targetPoint" />
          </mxGeometry>
        </mxCell>
        <mxCell id="4bbGpndZAnQvG1SRmh3T-13" value="" style="edgeStyle=orthogonalEdgeStyle;rounded=0;orthogonalLoop=1;jettySize=auto;html=1;" parent="1" source="4bbGpndZAnQvG1SRmh3T-6" target="4bbGpndZAnQvG1SRmh3T-12" edge="1">
          <mxGeometry relative="1" as="geometry">
            <Array as="points">
              <mxPoint x="240" y="720" />
              <mxPoint x="240" y="720" />
            </Array>
          </mxGeometry>
        </mxCell>
        <mxCell id="4bbGpndZAnQvG1SRmh3T-6" value="Si X &amp;gt; 0&lt;br&gt;X mod 2" style="rhombus;whiteSpace=wrap;html=1;" parent="1" vertex="1">
          <mxGeometry x="287.5" y="690" width="115" height="80" as="geometry" />
        </mxCell>
        <mxCell id="4bbGpndZAnQvG1SRmh3T-10" value="Si" style="text;html=1;strokeColor=none;fillColor=none;align=center;verticalAlign=middle;whiteSpace=wrap;rounded=0;" parent="1" vertex="1">
          <mxGeometry x="380" y="700" width="60" height="30" as="geometry" />
        </mxCell>
        <mxCell id="4bbGpndZAnQvG1SRmh3T-35" style="edgeStyle=orthogonalEdgeStyle;rounded=0;orthogonalLoop=1;jettySize=auto;html=1;entryX=0.933;entryY=0.222;entryDx=0;entryDy=0;entryPerimeter=0;" parent="1" source="4bbGpndZAnQvG1SRmh3T-11" target="4bbGpndZAnQvG1SRmh3T-31" edge="1">
          <mxGeometry relative="1" as="geometry" />
        </mxCell>
        <mxCell id="4bbGpndZAnQvG1SRmh3T-11" value="Imprimir ¨¨X es positivo Par¨" style="shape=display;whiteSpace=wrap;html=1;" parent="1" vertex="1">
          <mxGeometry x="430" y="710" width="140" height="60" as="geometry" />
        </mxCell>
        <mxCell id="4bbGpndZAnQvG1SRmh3T-15" value="" style="edgeStyle=orthogonalEdgeStyle;rounded=0;orthogonalLoop=1;jettySize=auto;html=1;" parent="1" source="4bbGpndZAnQvG1SRmh3T-12" target="4bbGpndZAnQvG1SRmh3T-6" edge="1">
          <mxGeometry relative="1" as="geometry">
            <Array as="points">
              <mxPoint x="270" y="770" />
              <mxPoint x="270" y="800" />
              <mxPoint x="345" y="800" />
            </Array>
          </mxGeometry>
        </mxCell>
        <mxCell id="4bbGpndZAnQvG1SRmh3T-21" value="" style="edgeStyle=orthogonalEdgeStyle;rounded=0;orthogonalLoop=1;jettySize=auto;html=1;" parent="1" source="4bbGpndZAnQvG1SRmh3T-12" target="4bbGpndZAnQvG1SRmh3T-16" edge="1">
          <mxGeometry relative="1" as="geometry" />
        </mxCell>
        <mxCell id="4bbGpndZAnQvG1SRmh3T-12" value="X&amp;gt;0&lt;br&gt;No X mod 2" style="rhombus;whiteSpace=wrap;html=1;" parent="1" vertex="1">
          <mxGeometry x="170" y="730" width="80" height="80" as="geometry" />
        </mxCell>
        <mxCell id="4bbGpndZAnQvG1SRmh3T-32" style="edgeStyle=orthogonalEdgeStyle;rounded=0;orthogonalLoop=1;jettySize=auto;html=1;entryX=0;entryY=0;entryDx=0;entryDy=0;" parent="1" source="4bbGpndZAnQvG1SRmh3T-14" target="4bbGpndZAnQvG1SRmh3T-31" edge="1">
          <mxGeometry relative="1" as="geometry" />
        </mxCell>
        <mxCell id="4bbGpndZAnQvG1SRmh3T-14" value="Imprimir ¨X positivo Impar¨" style="shape=display;whiteSpace=wrap;html=1;" parent="1" vertex="1">
          <mxGeometry x="240" y="800" width="130" height="60" as="geometry" />
        </mxCell>
        <mxCell id="4bbGpndZAnQvG1SRmh3T-25" value="" style="edgeStyle=orthogonalEdgeStyle;rounded=0;orthogonalLoop=1;jettySize=auto;html=1;" parent="1" source="4bbGpndZAnQvG1SRmh3T-16" target="4bbGpndZAnQvG1SRmh3T-24" edge="1">
          <mxGeometry relative="1" as="geometry" />
        </mxCell>
        <mxCell id="4bbGpndZAnQvG1SRmh3T-28" style="edgeStyle=orthogonalEdgeStyle;rounded=0;orthogonalLoop=1;jettySize=auto;html=1;" parent="1" source="4bbGpndZAnQvG1SRmh3T-16" target="4bbGpndZAnQvG1SRmh3T-23" edge="1">
          <mxGeometry relative="1" as="geometry" />
        </mxCell>
        <mxCell id="4bbGpndZAnQvG1SRmh3T-16" value="X&amp;lt;0&lt;br&gt;Xmod 2" style="rhombus;whiteSpace=wrap;html=1;" parent="1" vertex="1">
          <mxGeometry x="60" y="730" width="80" height="80" as="geometry" />
        </mxCell>
        <mxCell id="4bbGpndZAnQvG1SRmh3T-17" value="No" style="text;html=1;strokeColor=none;fillColor=none;align=center;verticalAlign=middle;whiteSpace=wrap;rounded=0;" parent="1" vertex="1">
          <mxGeometry x="228" y="690" width="60" height="30" as="geometry" />
        </mxCell>
        <mxCell id="4bbGpndZAnQvG1SRmh3T-20" value="Si" style="text;html=1;strokeColor=none;fillColor=none;align=center;verticalAlign=middle;whiteSpace=wrap;rounded=0;" parent="1" vertex="1">
          <mxGeometry x="260" y="780" width="60" height="30" as="geometry" />
        </mxCell>
        <mxCell id="4bbGpndZAnQvG1SRmh3T-33" style="edgeStyle=orthogonalEdgeStyle;rounded=0;orthogonalLoop=1;jettySize=auto;html=1;" parent="1" source="4bbGpndZAnQvG1SRmh3T-23" target="4bbGpndZAnQvG1SRmh3T-31" edge="1">
          <mxGeometry relative="1" as="geometry">
            <Array as="points">
              <mxPoint x="220" y="930" />
            </Array>
          </mxGeometry>
        </mxCell>
        <mxCell id="4bbGpndZAnQvG1SRmh3T-23" value="Imprimir ¨X Negativo par¨" style="shape=display;whiteSpace=wrap;html=1;" parent="1" vertex="1">
          <mxGeometry x="140" y="840" width="80" height="40" as="geometry" />
        </mxCell>
        <mxCell id="4bbGpndZAnQvG1SRmh3T-30" style="edgeStyle=orthogonalEdgeStyle;rounded=0;orthogonalLoop=1;jettySize=auto;html=1;" parent="1" source="4bbGpndZAnQvG1SRmh3T-24" target="4bbGpndZAnQvG1SRmh3T-29" edge="1">
          <mxGeometry relative="1" as="geometry" />
        </mxCell>
        <mxCell id="4bbGpndZAnQvG1SRmh3T-24" value="X&amp;lt;0&lt;br&gt;No Xmod 2" style="rhombus;whiteSpace=wrap;html=1;" parent="1" vertex="1">
          <mxGeometry y="830" width="80" height="80" as="geometry" />
        </mxCell>
        <mxCell id="4bbGpndZAnQvG1SRmh3T-26" value="No" style="text;html=1;strokeColor=none;fillColor=none;align=center;verticalAlign=middle;whiteSpace=wrap;rounded=0;" parent="1" vertex="1">
          <mxGeometry x="20" y="790" width="60" height="30" as="geometry" />
        </mxCell>
        <mxCell id="4bbGpndZAnQvG1SRmh3T-27" value="Si" style="text;html=1;strokeColor=none;fillColor=none;align=center;verticalAlign=middle;whiteSpace=wrap;rounded=0;" parent="1" vertex="1">
          <mxGeometry x="140" y="810" width="60" height="30" as="geometry" />
        </mxCell>
        <mxCell id="4bbGpndZAnQvG1SRmh3T-34" style="edgeStyle=orthogonalEdgeStyle;rounded=0;orthogonalLoop=1;jettySize=auto;html=1;" parent="1" source="4bbGpndZAnQvG1SRmh3T-29" target="4bbGpndZAnQvG1SRmh3T-31" edge="1">
          <mxGeometry relative="1" as="geometry">
            <Array as="points">
              <mxPoint x="135" y="980" />
              <mxPoint x="255" y="980" />
              <mxPoint x="255" y="950" />
            </Array>
          </mxGeometry>
        </mxCell>
        <mxCell id="4bbGpndZAnQvG1SRmh3T-29" value="Imprimir ¨X negativo impar¨" style="shape=display;whiteSpace=wrap;html=1;" parent="1" vertex="1">
          <mxGeometry x="80" y="910" width="110" height="30" as="geometry" />
        </mxCell>
        <mxCell id="4bbGpndZAnQvG1SRmh3T-31" value="Fin" style="ellipse;whiteSpace=wrap;html=1;" parent="1" vertex="1">
          <mxGeometry x="375" y="910" width="70" height="30" as="geometry" />
        </mxCell>
        <mxCell id="_eo7nYOsgeWWIiObV1oL-4" value="" style="edgeStyle=orthogonalEdgeStyle;rounded=0;orthogonalLoop=1;jettySize=auto;html=1;" edge="1" parent="1" source="_eo7nYOsgeWWIiObV1oL-1" target="_eo7nYOsgeWWIiObV1oL-3">
          <mxGeometry relative="1" as="geometry" />
        </mxCell>
        <mxCell id="_eo7nYOsgeWWIiObV1oL-1" value="Inicio" style="ellipse;whiteSpace=wrap;html=1;" vertex="1" parent="1">
          <mxGeometry x="-500" y="470" width="50" height="30" as="geometry" />
        </mxCell>
        <mxCell id="_eo7nYOsgeWWIiObV1oL-7" value="" style="edgeStyle=orthogonalEdgeStyle;rounded=0;orthogonalLoop=1;jettySize=auto;html=1;entryX=0.5;entryY=1;entryDx=0;entryDy=0;" edge="1" parent="1" source="_eo7nYOsgeWWIiObV1oL-3" target="_eo7nYOsgeWWIiObV1oL-25">
          <mxGeometry relative="1" as="geometry">
            <Array as="points">
              <mxPoint x="-475" y="575" />
              <mxPoint x="-570" y="575" />
              <mxPoint x="-570" y="630" />
              <mxPoint x="-575" y="630" />
            </Array>
          </mxGeometry>
        </mxCell>
        <mxCell id="_eo7nYOsgeWWIiObV1oL-3" value="Leer (a;b)" style="shape=manualInput;whiteSpace=wrap;html=1;" vertex="1" parent="1">
          <mxGeometry x="-538.75" y="510" width="127.5" height="50" as="geometry" />
        </mxCell>
        <mxCell id="_eo7nYOsgeWWIiObV1oL-13" value="" style="edgeStyle=orthogonalEdgeStyle;rounded=0;orthogonalLoop=1;jettySize=auto;html=1;" edge="1" parent="1" source="_eo7nYOsgeWWIiObV1oL-5" target="_eo7nYOsgeWWIiObV1oL-12">
          <mxGeometry relative="1" as="geometry" />
        </mxCell>
        <mxCell id="_eo7nYOsgeWWIiObV1oL-5" value="d=a-b" style="rounded=1;whiteSpace=wrap;html=1;" vertex="1" parent="1">
          <mxGeometry x="-411.25" y="600" width="120" height="60" as="geometry" />
        </mxCell>
        <mxCell id="_eo7nYOsgeWWIiObV1oL-10" value="" style="edgeStyle=orthogonalEdgeStyle;rounded=0;orthogonalLoop=1;jettySize=auto;html=1;" edge="1" parent="1" source="_eo7nYOsgeWWIiObV1oL-6" target="_eo7nYOsgeWWIiObV1oL-5">
          <mxGeometry relative="1" as="geometry" />
        </mxCell>
        <mxCell id="_eo7nYOsgeWWIiObV1oL-21" style="edgeStyle=orthogonalEdgeStyle;rounded=0;orthogonalLoop=1;jettySize=auto;html=1;" edge="1" parent="1" source="_eo7nYOsgeWWIiObV1oL-6">
          <mxGeometry relative="1" as="geometry">
            <mxPoint x="-510" y="730" as="targetPoint" />
          </mxGeometry>
        </mxCell>
        <mxCell id="_eo7nYOsgeWWIiObV1oL-6" value="Si a&amp;gt;b" style="rhombus;whiteSpace=wrap;html=1;" vertex="1" parent="1">
          <mxGeometry x="-515" y="590" width="80" height="80" as="geometry" />
        </mxCell>
        <mxCell id="_eo7nYOsgeWWIiObV1oL-11" value="Si" style="text;html=1;strokeColor=none;fillColor=none;align=center;verticalAlign=middle;whiteSpace=wrap;rounded=0;" vertex="1" parent="1">
          <mxGeometry x="-455" y="600" width="60" height="30" as="geometry" />
        </mxCell>
        <mxCell id="_eo7nYOsgeWWIiObV1oL-15" style="edgeStyle=orthogonalEdgeStyle;rounded=0;orthogonalLoop=1;jettySize=auto;html=1;" edge="1" parent="1" source="_eo7nYOsgeWWIiObV1oL-12">
          <mxGeometry relative="1" as="geometry">
            <mxPoint x="-110" y="670" as="targetPoint" />
          </mxGeometry>
        </mxCell>
        <mxCell id="_eo7nYOsgeWWIiObV1oL-19" value="" style="edgeStyle=orthogonalEdgeStyle;rounded=0;orthogonalLoop=1;jettySize=auto;html=1;" edge="1" parent="1" source="_eo7nYOsgeWWIiObV1oL-12" target="_eo7nYOsgeWWIiObV1oL-18">
          <mxGeometry relative="1" as="geometry" />
        </mxCell>
        <mxCell id="_eo7nYOsgeWWIiObV1oL-12" value="Si d&amp;gt;=0" style="rhombus;whiteSpace=wrap;html=1;" vertex="1" parent="1">
          <mxGeometry x="-260" y="590" width="80" height="80" as="geometry" />
        </mxCell>
        <mxCell id="_eo7nYOsgeWWIiObV1oL-16" style="edgeStyle=orthogonalEdgeStyle;rounded=0;orthogonalLoop=1;jettySize=auto;html=1;" edge="1" parent="1" source="_eo7nYOsgeWWIiObV1oL-14">
          <mxGeometry relative="1" as="geometry">
            <mxPoint x="-351" y="600" as="targetPoint" />
            <Array as="points">
              <mxPoint x="-100" y="570" />
              <mxPoint x="-351" y="570" />
              <mxPoint x="-351" y="600" />
            </Array>
          </mxGeometry>
        </mxCell>
        <mxCell id="_eo7nYOsgeWWIiObV1oL-14" value="C=C+1; R=D; A=D" style="rounded=1;whiteSpace=wrap;html=1;" vertex="1" parent="1">
          <mxGeometry x="-180" y="675" width="120" height="60" as="geometry" />
        </mxCell>
        <mxCell id="_eo7nYOsgeWWIiObV1oL-17" value="Si" style="text;html=1;strokeColor=none;fillColor=none;align=center;verticalAlign=middle;whiteSpace=wrap;rounded=0;" vertex="1" parent="1">
          <mxGeometry x="-180" y="600" width="60" height="30" as="geometry" />
        </mxCell>
        <mxCell id="_eo7nYOsgeWWIiObV1oL-22" style="edgeStyle=orthogonalEdgeStyle;rounded=0;orthogonalLoop=1;jettySize=auto;html=1;entryX=1;entryY=0.5;entryDx=0;entryDy=0;" edge="1" parent="1" source="_eo7nYOsgeWWIiObV1oL-18" target="_eo7nYOsgeWWIiObV1oL-20">
          <mxGeometry relative="1" as="geometry" />
        </mxCell>
        <mxCell id="_eo7nYOsgeWWIiObV1oL-18" value="Imprimir (¨El cociente es¨ + C ¨y el Residuo es¨ + R" style="shape=display;whiteSpace=wrap;html=1;" vertex="1" parent="1">
          <mxGeometry x="-360" y="710" width="150" height="70" as="geometry" />
        </mxCell>
        <mxCell id="_eo7nYOsgeWWIiObV1oL-20" value="Fin" style="ellipse;whiteSpace=wrap;html=1;" vertex="1" parent="1">
          <mxGeometry x="-485" y="810" width="55" height="30" as="geometry" />
        </mxCell>
        <mxCell id="_eo7nYOsgeWWIiObV1oL-23" value="No" style="text;html=1;strokeColor=none;fillColor=none;align=center;verticalAlign=middle;whiteSpace=wrap;rounded=0;" vertex="1" parent="1">
          <mxGeometry x="-530" y="670" width="60" height="30" as="geometry" />
        </mxCell>
        <mxCell id="_eo7nYOsgeWWIiObV1oL-24" value="No" style="text;html=1;strokeColor=none;fillColor=none;align=center;verticalAlign=middle;whiteSpace=wrap;rounded=0;" vertex="1" parent="1">
          <mxGeometry x="-280" y="660" width="60" height="30" as="geometry" />
        </mxCell>
        <mxCell id="_eo7nYOsgeWWIiObV1oL-26" style="edgeStyle=orthogonalEdgeStyle;rounded=0;orthogonalLoop=1;jettySize=auto;html=1;entryX=0.075;entryY=0.6;entryDx=0;entryDy=0;entryPerimeter=0;" edge="1" parent="1" source="_eo7nYOsgeWWIiObV1oL-25" target="_eo7nYOsgeWWIiObV1oL-6">
          <mxGeometry relative="1" as="geometry" />
        </mxCell>
        <mxCell id="_eo7nYOsgeWWIiObV1oL-25" value="c=0; r=0" style="rounded=0;whiteSpace=wrap;html=1;" vertex="1" parent="1">
          <mxGeometry x="-640" y="580" width="130" height="30" as="geometry" />
        </mxCell>
        <mxCell id="_eo7nYOsgeWWIiObV1oL-28" style="edgeStyle=orthogonalEdgeStyle;rounded=0;orthogonalLoop=1;jettySize=auto;html=1;entryX=0;entryY=0.5;entryDx=0;entryDy=0;" edge="1" parent="1" source="_eo7nYOsgeWWIiObV1oL-27" target="_eo7nYOsgeWWIiObV1oL-20">
          <mxGeometry relative="1" as="geometry" />
        </mxCell>
        <mxCell id="_eo7nYOsgeWWIiObV1oL-27" value="Imprimir ¨No se puede dividir¨" style="shape=display;whiteSpace=wrap;html=1;" vertex="1" parent="1">
          <mxGeometry x="-560" y="730" width="110" height="40" as="geometry" />
        </mxCell>
      </root>
    </mxGraphModel>
  </diagram>
</mxfile>
